<?xml version="1.0" encoding="UTF-8"?>
<svg id="_Слой_2" data-name="Слой 2" xmlns="http://www.w3.org/2000/svg" viewBox="0 0 134 73.39">
  <defs>
    <style>
      .cls-1, .cls-2 {
        stroke-width: 0px;
      }

      .cls-3 {
        letter-spacing: -.07em;
      }

      .cls-4 {
        font-family: MyriadPro-Regular, 'Myriad Pro';
        font-size: 22.78px;
      }

      .cls-2 {
        fill: #1d1d1b;
      }
    </style>
  </defs>
  <g id="_Слой_2-2" data-name="Слой 2">
    <g>
      <g>
        <path class="cls-2" d="m28.66,52.25c-4.86-1.86-7.95-6.38-7.71-11.05.26-5.05,4.31-8,4.86-8.38,3.3-.32,6.6-.63,9.9-.95.84-.47,2.09-1.32,3.05-2.76,1.75-2.65.69-4.57,2-6,1.62-1.76,4.79-.56,10.19,0,2.62.27,6.28.45,10.76,0,15.75-4.92,31.49-9.84,47.24-14.76,1.33-.52,2.49-.8,3.33-.95,1.75-.32,2.65-.47,3.52,0,.21.11.71.65,1.71,1.71,1.07,1.14,1.28,1.42,1.81,1.62.4.15.5.07,1.9.1,1.99.03,2.32.19,2.57-.1.39-.45.05-1.36-.48-2.76-.34-.9-.68-1.4-.76-1.52-.11-.16-.16-.22-.86-1.05-.91-1.09-.75-.91-.95-1.14-1.03-1.2-1.14-1.2-1.24-1.52-.26-.86.35-1.4.1-1.71-.35-.43-1.76.34-3.81,1.14-1.78.7-3.61,1.42-5.9,1.81-1.38.24-1.98.19-3.05.67-1.55.7-2.44,1.76-2.57,1.9-1.35,1.49-14.18,5.31-46.95,13.05-.23.19-1.25.95-2.57.76-1.52-.21-2.81-1.59-2.76-2.76.04-.82.71-.92,1.24-2,1.01-2.04-.04-4.41-.19-4.76-.18-.4-1.17-2.66-3.52-3.43-1.76-.57-3.28,0-5.05.67-2.03.77-3.49,1.87-4.38,2.67-1.28,1.56-3.64,3.91-7.24,5.05-3.28,1.04-6.2.63-8,.38-1.18-.16-.85-.22-7.33-1.81-3.03-.74-4.03-.96-5.52-.95-1.13,0-2.95.04-5.05.95-.79.34-2.62,1.25-4.19,3.14C.38,20.35.17,23.59.04,25.59c-.19,2.97.34,5.53,1.19,8.1.5,1.51,5.95,17.39,16,19.52,3.18.68,6.48.29,6.48.29,2.08-.25,3.76-.77,4.95-1.24Z"/>
        <circle class="cls-2" cx="107.17" cy="3.09" r=".99"/>
        <circle class="cls-2" cx="111.01" cy="1.93" r=".96"/>
        <circle class="cls-2" cx="115.17" cy="1" r="1"/>
      </g>
      <g>
        <path class="cls-1" d="m48.9,67.73v-2c.25.2.55.38.9.55s.71.3,1.1.41.77.2,1.16.26c.39.06.75.09,1.08.09,1.14,0,1.98-.19,2.54-.58.56-.39.84-.95.84-1.68,0-.39-.09-.73-.28-1.02-.19-.29-.45-.55-.78-.79-.33-.24-.72-.47-1.17-.69-.45-.22-.94-.45-1.46-.69-.55-.26-1.06-.52-1.54-.78-.48-.26-.89-.55-1.24-.87-.35-.32-.63-.68-.83-1.08-.2-.4-.3-.87-.3-1.41,0-.66.16-1.24.47-1.73.32-.49.73-.89,1.24-1.21.51-.32,1.1-.55,1.75-.71.66-.16,1.32-.23,2.01-.23,1.55,0,2.69.17,3.4.52v1.91c-.93-.59-2.13-.89-3.58-.89-.4,0-.81.04-1.21.12-.4.08-.76.2-1.08.38-.32.18-.57.4-.77.68-.2.28-.3.61-.3,1.01,0,.37.08.69.23.96.15.27.37.52.67.74.29.22.65.44,1.07.65.42.21.91.44,1.46.69.56.26,1.1.53,1.6.81s.95.6,1.33.94c.38.34.68.73.91,1.14.22.42.33.9.33,1.44,0,.72-.15,1.32-.46,1.82s-.71.9-1.23,1.21-1.11.54-1.79.67c-.67.14-1.39.21-2.13.21-.25,0-.56-.02-.92-.06-.37-.04-.74-.09-1.12-.16-.38-.07-.74-.16-1.08-.26-.34-.1-.61-.22-.82-.35Z"/>
        <path class="cls-1" d="m72.33,67.71c-1.17.57-2.62.85-4.35.85-2.24,0-4.04-.67-5.39-2s-2.02-3.08-2.02-5.24c0-2.32.76-4.2,2.28-5.63,1.52-1.43,3.44-2.15,5.77-2.15,1.5,0,2.73.2,3.72.6v1.81c-1.13-.58-2.37-.87-3.74-.87-1.81,0-3.28.56-4.4,1.67s-1.69,2.6-1.69,4.47c0,1.77.53,3.18,1.58,4.23s2.43,1.58,4.14,1.58c1.58,0,2.95-.32,4.11-.97v1.65Z"/>
        <path class="cls-1" d="m87.39,68.32h-1.85v-6.62h-8.16v6.62h-1.85v-14.52h1.85v6.37h8.16v-6.37h1.85v14.52Z"/>
        <path class="cls-1" d="m97.88,68.56c-2.24,0-4.03-.68-5.37-2.04s-2.02-3.12-2.02-5.3c0-2.34.69-4.2,2.06-5.59,1.37-1.39,3.24-2.09,5.6-2.09,2.18,0,3.93.68,5.26,2.03,1.33,1.35,2,3.12,2,5.3,0,2.37-.68,4.24-2.04,5.62-1.36,1.38-3.19,2.07-5.47,2.07Zm.13-13.47c-1.66,0-3,.55-4.03,1.65s-1.55,2.55-1.55,4.33.5,3.23,1.51,4.32c1.01,1.09,2.32,1.64,3.94,1.64,1.73,0,3.09-.52,4.09-1.56,1-1.04,1.5-2.5,1.5-4.37s-.48-3.4-1.45-4.45c-.97-1.05-2.3-1.57-4-1.57Z"/>
        <path class="cls-1" d="m114.85,68.56c-2.24,0-4.03-.68-5.37-2.04s-2.02-3.12-2.02-5.3c0-2.34.69-4.2,2.06-5.59,1.37-1.39,3.24-2.09,5.6-2.09,2.18,0,3.93.68,5.26,2.03,1.33,1.35,2,3.12,2,5.3,0,2.37-.68,4.24-2.04,5.62-1.36,1.38-3.19,2.07-5.47,2.07Zm.13-13.47c-1.66,0-3,.55-4.03,1.65s-1.55,2.55-1.55,4.33.5,3.23,1.51,4.32c1.01,1.09,2.32,1.64,3.94,1.64,1.73,0,3.09-.52,4.09-1.56,1-1.04,1.5-2.5,1.5-4.37s-.48-3.4-1.45-4.45c-.97-1.05-2.3-1.57-4-1.57Z"/>
        <path class="cls-1" d="m133.65,68.32h-8.18v-14.52h1.85v12.98h6.33v1.54Z"/>
      </g>
      <text class="cls-4" transform="translate(28.52 50.43) scale(1.15 1)"><tspan x="0" y="0">GUI</tspan><tspan class="cls-3" x="34.9" y="0">T</tspan><tspan x="44.51" y="0">AR</tspan></text>
    </g>
  </g>
</svg>